{
  "extensionsUsed": [
    "KHR_materials_transmission",
    "KHR_materials_clearcoat",
    "KHR_materials_ior",
    "KHR_materials_specular",
    "KHR_materials_emissive_strength",
    "KHR_texture_transform"
  ],
  "accessors": [
    {
      "bufferView": 0,
      "componentType": 5126,
      "count": 4,
      "type": "VEC3",
      "max": [
        0.238,
        0.0,
        0.0
      ],
      "min": [
        0.22,
        -0.42,
        0.0
      ]
    },
    {
      "bufferView": 1,
      "componentType": 5125,
      "count": 6,
      "type": "SCALAR",
      "max": [
        3.0
      ],
      "min": [
        0.0
      ]
    },
    {
      "bufferView": 2,
      "componentType": 5126,
      "count": 4,
      "type": "VEC3",
      "max": [
        0.0,
        0.0,
        1.0
      ],
      "min": [
        0.0,
        0.0,
        1.0
      ]
    },
    {
      "bufferView": 3,
      "componentType": 5126,
      "count": 4,
      "type": "VEC2",
      "max": [
        0.6476415,
        0.52620155
      ],
      "min": [
        0.6274621,
        0.055349536
      ]
    },
    {
      "bufferView": 4,
      "componentType": 5126,
      "count": 4,
      "type": "VEC3",
      "max": [
        0.238,
        0.0,
        0.0
      ],
      "min": [
        0.22,
        0.0,
        -0.472
      ]
    },
    {
      "bufferView": 5,
      "componentType": 5125,
      "count": 6,
      "type": "SCALAR",
      "max": [
        3.0
      ],
      "min": [
        0.0
      ]
    },
    {
      "bufferView": 6,
      "componentType": 5126,
      "count": 4,
      "type": "VEC3",
      "max": [
        0.0,
        1.0,
        0.0
      ],
      "min": [
        0.0,
        1.0,
        0.0
      ]
    },
    {
      "bufferView": 7,
      "componentType": 5126,
      "count": 4,
      "type": "VEC2",
      "max": [
        0.5841909,
        0.529148
      ],
      "min": [
        0.5654764,
        0.0
      ]
    },
    {
      "bufferView": 8,
      "componentType": 5126,
      "count": 212,
      "type": "VEC3",
      "max": [
        0.238,
        0.0,
        -0.472
      ],
      "min": [
        0.22,
        -0.42,
        -0.472
      ]
    },
    {
      "bufferView": 9,
      "componentType": 5125,
      "count": 654,
      "type": "SCALAR",
      "max": [
        211.0
      ],
      "min": [
        0.0
      ]
    },
    {
      "bufferView": 10,
      "componentType": 5126,
      "count": 212,
      "type": "VEC3",
      "max": [
        0.0,
        1.110223E-16,
        -1.0
      ],
      "min": [
        0.0,
        -1.110223E-16,
        -1.0
      ]
    },
    {
      "bufferView": 11,
      "componentType": 5126,
      "count": 212,
      "type": "VEC2",
      "max": [
        0.61446,
        0.47085202
      ],
      "min": [
        0.59574544,
        0.0
      ]
    },
    {
      "bufferView": 12,
      "componentType": 5126,
      "count": 4,
      "type": "VEC3",
      "max": [
        0.238,
        -0.42,
        0.0
      ],
      "min": [
        0.22,
        -0.42,
        -0.472
      ]
    },
    {
      "bufferView": 13,
      "componentType": 5125,
      "count": 6,
      "type": "SCALAR",
      "max": [
        3.0
      ],
      "min": [
        0.0
      ]
    },
    {
      "bufferView": 14,
      "componentType": 5126,
      "count": 4,
      "type": "VEC3",
      "max": [
        0.0,
        -1.0,
        0.0
      ],
      "min": [
        0.0,
        -1.0,
        0.0
      ]
    },
    {
      "bufferView": 15,
      "componentType": 5126,
      "count": 4,
      "type": "VEC2",
      "max": [
        0.670716,
        0.5844975
      ],
      "min": [
        0.6505366,
        0.055349536
      ]
    },
    {
      "bufferView": 16,
      "componentType": 5126,
      "count": 244,
      "type": "VEC3",
      "max": [
        0.238,
        0.0,
        0.0
      ],
      "min": [
        0.238,
        -0.42,
        -0.472
      ]
    },
    {
      "bufferView": 17,
      "componentType": 5125,
      "count": 762,
      "type": "SCALAR",
      "max": [
        243.0
      ],
      "min": [
        0.0
      ]
    },
    {
      "bufferView": 18,
      "componentType": 5126,
      "count": 244,
      "type": "VEC3",
      "max": [
        1.0,
        0.0,
        5.551115E-17
      ],
      "min": [
        1.0,
        0.0,
        -5.551115E-17
      ]
    },
    {
      "bufferView": 19,
      "componentType": 5126,
      "count": 244,
      "type": "VEC2",
      "max": [
        0.5640116,
        0.99853516
      ],
      "min": [
        0.094624385,
        0.47085202
      ]
    },
    {
      "bufferView": 20,
      "componentType": 5126,
      "count": 4,
      "type": "VEC3",
      "max": [
        0.22,
        0.0,
        0.0
      ],
      "min": [
        0.22,
        -0.42,
        -0.472
      ]
    },
    {
      "bufferView": 21,
      "componentType": 5125,
      "count": 6,
      "type": "SCALAR",
      "max": [
        3.0
      ],
      "min": [
        0.0
      ]
    },
    {
      "bufferView": 22,
      "componentType": 5126,
      "count": 4,
      "type": "VEC3",
      "max": [
        -1.0,
        0.0,
        0.0
      ],
      "min": [
        -1.0,
        0.0,
        0.0
      ]
    },
    {
      "bufferView": 23,
      "componentType": 5126,
      "count": 4,
      "type": "VEC2",
      "max": [
        0.529148,
        0.46938717
      ],
      "min": [
        0.0,
        0.0
      ]
    },
    {
      "bufferView": 24,
      "componentType": 5126,
      "count": 113,
      "type": "VEC3",
      "max": [
        0.238,
        -0.0615,
        -0.4305
      ],
      "min": [
        0.224,
        -0.069,
        -0.4455
      ]
    },
    {
      "bufferView": 25,
      "componentType": 5125,
      "count": 447,
      "type": "SCALAR",
      "max": [
        112.0
      ],
      "min": [
        0.0
      ]
    },
    {
      "bufferView": 26,
      "componentType": 5126,
      "count": 113,
      "type": "VEC3",
      "max": [
        0.0,
        6.123234E-17,
        1.0
      ],
      "min": [
        0.0,
        -1.0,
        -1.0
      ]
    },
    {
      "bufferView": 27,
      "componentType": 5126,
      "count": 113,
      "type": "VEC2",
      "max": [
        0.0427562,
        0.714952
      ],
      "min": [
        0.027994158,
        0.6887075
      ]
    },
    {
      "bufferView": 28,
      "componentType": 5126,
      "count": 113,
      "type": "VEC3",
      "max": [
        0.238,
        -0.069,
        -0.4305
      ],
      "min": [
        0.224,
        -0.0765,
        -0.4455
      ]
    },
    {
      "bufferView": 29,
      "componentType": 5125,
      "count": 447,
      "type": "SCALAR",
      "max": [
        112.0
      ],
      "min": [
        0.0
      ]
    },
    {
      "bufferView": 30,
      "componentType": 5126,
      "count": 113,
      "type": "VEC3",
      "max": [
        0.0,
        1.0,
        1.0
      ],
      "min": [
        0.0,
        -6.123234E-17,
        -1.0
      ]
    },
    {
      "bufferView": 31,
      "componentType": 5126,
      "count": 113,
      "type": "VEC2",
      "max": [
        0.058983088,
        0.714952
      ],
      "min": [
        0.044221044,
        0.6887075
      ]
    },
    {
      "bufferView": 32,
      "componentType": 5126,
      "count": 38,
      "type": "VEC3",
      "max": [
        0.224,
        -0.061525617,
        -0.4305
      ],
      "min": [
        0.224,
        -0.07647438,
        -0.4455
      ]
    },
    {
      "bufferView": 33,
      "componentType": 5125,
      "count": 108,
      "type": "SCALAR",
      "max": [
        37.0
      ],
      "min": [
        0.0
      ]
    },
    {
      "bufferView": 34,
      "componentType": 5126,
      "count": 38,
      "type": "VEC3",
      "max": [
        1.0,
        0.0,
        0.0
      ],
      "min": [
        1.0,
        0.0,
        0.0
      ]
    },
    {
      "bufferView": 35,
      "componentType": 5126,
      "count": 38,
      "type": "VEC2",
      "max": [
        0.043288022,
        0.8611699
      ],
      "min": [
        0.027994158,
        0.84435374
      ]
    },
    {
      "bufferView": 36,
      "componentType": 5126,
      "count": 102,
      "type": "VEC3",
      "max": [
        0.233,
        -0.065,
        -0.4443443
      ],
      "min": [
        0.225,
        -0.069,
        -0.472
      ]
    },
    {
      "bufferView": 37,
      "componentType": 5125,
      "count": 435,
      "type": "SCALAR",
      "max": [
        101.0
      ],
      "min": [
        0.0
      ]
    },
    {
      "bufferView": 38,
      "componentType": 5126,
      "count": 102,
      "type": "VEC3",
      "max": [
        1.0,
        6.123234E-17,
        0.0
      ],
      "min": [
        -1.0,
        -1.0,
        0.0
      ]
    },
    {
      "bufferView": 39,
      "componentType": 5126,
      "count": 102,
      "type": "VEC2",
      "max": [
        0.62845707,
        0.03100416
      ],
      "min": [
        0.61592484,
        0.0
      ]
    },
    {
      "bufferView": 40,
      "componentType": 5126,
      "count": 102,
      "type": "VEC3",
      "max": [
        0.233,
        -0.069,
        -0.4443443
      ],
      "min": [
        0.225,
        -0.073,
        -0.472
      ]
    },
    {
      "bufferView": 41,
      "componentType": 5125,
      "count": 435,
      "type": "SCALAR",
      "max": [
        101.0
      ],
      "min": [
        0.0
      ]
    },
    {
      "bufferView": 42,
      "componentType": 5126,
      "count": 102,
      "type": "VEC3",
      "max": [
        1.0,
        1.0,
        0.0
      ],
      "min": [
        -1.0,
        -6.123234E-17,
        0.0
      ]
    },
    {
      "bufferView": 43,
      "componentType": 5126,
      "count": 102,
      "type": "VEC2",
      "max": [
        0.64245415,
        0.03100416
      ],
      "min": [
        0.6299219,
        0.0
      ]
    },
    {
      "bufferView": 44,
      "componentType": 5126,
      "count": 113,
      "type": "VEC3",
      "max": [
        0.238,
        -0.3625,
        -0.4305
      ],
      "min": [
        0.224,
        -0.37,
        -0.4455
      ]
    },
    {
      "bufferView": 45,
      "componentType": 5125,
      "count": 447,
      "type": "SCALAR",
      "max": [
        112.0
      ],
      "min": [
        0.0
      ]
    },
    {
      "bufferView": 46,
      "componentType": 5126,
      "count": 113,
      "type": "VEC3",
      "max": [
        0.0,
        6.123234E-17,
        1.0
      ],
      "min": [
        0.0,
        -1.0,
        -1.0
      ]
    },
    {
      "bufferView": 47,
      "componentType": 5126,
      "count": 113,
      "type": "VEC2",
      "max": [
        0.058983088,
        0.87059826
      ],
      "min": [
        0.044752866,
        0.84435374
      ]
    },
    {
      "bufferView": 48,
      "componentType": 5126,
      "count": 113,
      "type": "VEC3",
      "max": [
        0.238,
        -0.37,
        -0.4305
      ],
      "min": [
        0.224,
        -0.3775,
        -0.4455
      ]
    },
    {
      "bufferView": 49,
      "componentType": 5125,
      "count": 447,
      "type": "SCALAR",
      "max": [
        112.0
      ],
      "min": [
        0.0
      ]
    },
    {
      "bufferView": 50,
      "componentType": 5126,
      "count": 113,
      "type": "VEC3",
      "max": [
        0.0,
        1.0,
        1.0
      ],
      "min": [
        0.0,
        -6.123234E-17,
        -1.0
      ]
    },
    {
      "bufferView": 51,
      "componentType": 5126,
      "count": 113,
      "type": "VEC2",
      "max": [
        0.6581492,
        0.026244521
      ],
      "min": [
        0.643919,
        0.0
      ]
    },
    {
      "bufferView": 52,
      "componentType": 5126,
      "count": 38,
      "type": "VEC3",
      "max": [
        0.224,
        -0.3625256,
        -0.4305
      ],
      "min": [
        0.224,
        -0.3774744,
        -0.4455
      ]
    },
    {
      "bufferView": 53,
      "componentType": 5125,
      "count": 108,
      "type": "SCALAR",
      "max": [
        37.0
      ],
      "min": [
        0.0
      ]
    },
    {
      "bufferView": 54,
      "componentType": 5126,
      "count": 38,
      "type": "VEC3",
      "max": [
        1.0,
        0.0,
        0.0
      ],
      "min": [
        1.0,
        0.0,
        0.0
      ]
    },
    {
      "bufferView": 55,
      "componentType": 5126,
      "count": 38,
      "type": "VEC2",
      "max": [
        0.058735047,
        0.48766816
      ],
      "min": [
        0.04197634,
        0.47085202
      ]
    },
    {
      "bufferView": 56,
      "componentType": 5126,
      "count": 102,
      "type": "VEC3",
      "max": [
        0.233,
        -0.366,
        -0.4443443
      ],
      "min": [
        0.225,
        -0.37,
        -0.472
      ]
    },
    {
      "bufferView": 57,
      "componentType": 5125,
      "count": 435,
      "type": "SCALAR",
      "max": [
        101.0
      ],
      "min": [
        0.0
      ]
    },
    {
      "bufferView": 58,
      "componentType": 5126,
      "count": 102,
      "type": "VEC3",
      "max": [
        1.0,
        6.123234E-17,
        0.0
      ],
      "min": [
        -1.0,
        -1.0,
        0.0
      ]
    },
    {
      "bufferView": 59,
      "componentType": 5126,
      "count": 102,
      "type": "VEC2",
      "max": [
        0.67214626,
        0.03100416
      ],
      "min": [
        0.659614,
        0.0
      ]
    },
    {
      "bufferView": 60,
      "componentType": 5126,
      "count": 102,
      "type": "VEC3",
      "max": [
        0.233,
        -0.37,
        -0.4443443
      ],
      "min": [
        0.225,
        -0.374,
        -0.472
      ]
    },
    {
      "bufferView": 61,
      "componentType": 5125,
      "count": 435,
      "type": "SCALAR",
      "max": [
        101.0
      ],
      "min": [
        0.0
      ]
    },
    {
      "bufferView": 62,
      "componentType": 5126,
      "count": 102,
      "type": "VEC3",
      "max": [
        1.0,
        1.0,
        0.0
      ],
      "min": [
        -1.0,
        -6.123234E-17,
        0.0
      ]
    },
    {
      "bufferView": 63,
      "componentType": 5126,
      "count": 102,
      "type": "VEC2",
      "max": [
        0.072980165,
        0.5018562
      ],
      "min": [
        0.06044793,
        0.47085202
      ]
    },
    {
      "bufferView": 64,
      "componentType": 5126,
      "count": 82,
      "type": "VEC3",
      "max": [
        0.233,
        -0.033,
        -0.454
      ],
      "min": [
        0.225,
        -0.041,
        -0.472
      ]
    },
    {
      "bufferView": 65,
      "componentType": 5125,
      "count": 240,
      "type": "SCALAR",
      "max": [
        81.0
      ],
      "min": [
        0.0
      ]
    },
    {
      "bufferView": 66,
      "componentType": 5126,
      "count": 82,
      "type": "VEC3",
      "max": [
        1.0,
        1.0,
        8.5576416E-16
      ],
      "min": [
        -1.0,
        -1.0,
        -1.2328259E-15
      ]
    },
    {
      "bufferView": 67,
      "componentType": 5126,
      "count": 82,
      "type": "VEC2",
      "max": [
        0.026529314,
        0.8645331
      ],
      "min": [
        0.0,
        0.84435374
      ]
    },
    {
      "bufferView": 68,
      "componentType": 5126,
      "count": 16,
      "type": "VEC3",
      "max": [
        0.233,
        -0.033,
        -0.454
      ],
      "min": [
        0.225,
        -0.041,
        -0.454
      ]
    },
    {
      "bufferView": 69,
      "componentType": 5125,
      "count": 42,
      "type": "SCALAR",
      "max": [
        15.0
      ],
      "min": [
        0.0
      ]
    },
    {
      "bufferView": 70,
      "componentType": 5126,
      "count": 16,
      "type": "VEC3",
      "max": [
        0.0,
        0.0,
        -1.0
      ],
      "min": [
        0.0,
        0.0,
        -1.0
      ]
    },
    {
      "bufferView": 71,
      "componentType": 5126,
      "count": 16,
      "type": "VEC2",
      "max": [
        0.050073907,
        0.5836745
      ],
      "min": [
        0.041105296,
        0.5747059
      ]
    },
    {
      "bufferView": 72,
      "componentType": 5126,
      "count": 82,
      "type": "VEC3",
      "max": [
        0.233,
        -0.334,
        -0.454
      ],
      "min": [
        0.225,
        -0.342,
        -0.472
      ]
    },
    {
      "bufferView": 73,
      "componentType": 5125,
      "count": 240,
      "type": "SCALAR",
      "max": [
        81.0
      ],
      "min": [
        0.0
      ]
    },
    {
      "bufferView": 74,
      "componentType": 5126,
      "count": 82,
      "type": "VEC3",
      "max": [
        1.0,
        1.0,
        1.8845206E-15
      ],
      "min": [
        -1.0,
        -1.0,
        -1.9620813E-15
      ]
    },
    {
      "bufferView": 75,
      "componentType": 5126,
      "count": 82,
      "type": "VEC2",
      "max": [
        0.026529314,
        0.70888686
      ],
      "min": [
        0.0,
        0.6887075
      ]
    },
    {
      "bufferView": 76,
      "componentType": 5126,
      "count": 16,
      "type": "VEC3",
      "max": [
        0.233,
        -0.334,
        -0.454
      ],
      "min": [
        0.225,
        -0.342,
        -0.454
      ]
    },
    {
      "bufferView": 77,
      "componentType": 5125,
      "count": 42,
      "type": "SCALAR",
      "max": [
        15.0
      ],
      "min": [
        0.0
      ]
    },
    {
      "bufferView": 78,
      "componentType": 5126,
      "count": 16,
      "type": "VEC3",
      "max": [
        0.0,
        0.0,
        -1.0
      ],
      "min": [
        0.0,
        0.0,
        -1.0
      ]
    },
    {
      "bufferView": 79,
      "componentType": 5126,
      "count": 16,
      "type": "VEC2",
      "max": [
        0.039465517,
        0.6407201
      ],
      "min": [
        0.03094065,
        0.63175154
      ]
    },
    {
      "bufferView": 80,
      "componentType": 5126,
      "count": 34,
      "type": "VEC3",
      "max": [
        0.238,
        -0.3485,
        -0.0815
      ],
      "min": [
        0.229,
        -0.3535,
        -0.0865
      ]
    },
    {
      "bufferView": 81,
      "componentType": 5125,
      "count": 96,
      "type": "SCALAR",
      "max": [
        33.0
      ],
      "min": [
        0.0
      ]
    },
    {
      "bufferView": 82,
      "componentType": 5126,
      "count": 34,
      "type": "VEC3",
      "max": [
        0.0,
        1.0,
        1.0
      ],
      "min": [
        0.0,
        -1.0,
        -1.0
      ]
    },
    {
      "bufferView": 83,
      "componentType": 5126,
      "count": 34,
      "type": "VEC2",
      "max": [
        0.040511496,
        0.48834836
      ],
      "min": [
        0.0308554,
        0.47085202
      ]
    },
    {
      "bufferView": 84,
      "componentType": 5126,
      "count": 16,
      "type": "VEC3",
      "max": [
        0.229,
        -0.3485,
        -0.0815
      ],
      "min": [
        0.229,
        -0.3535,
        -0.0865
      ]
    },
    {
      "bufferView": 85,
      "componentType": 5125,
      "count": 42,
      "type": "SCALAR",
      "max": [
        15.0
      ],
      "min": [
        0.0
      ]
    },
    {
      "bufferView": 86,
      "componentType": 5126,
      "count": 16,
      "type": "VEC3",
      "max": [
        1.0,
        0.0,
        -9.8607613E-32
      ],
      "min": [
        1.0,
        0.0,
        -9.8607613E-32
      ]
    },
    {
      "bufferView": 87,
      "componentType": 5126,
      "count": 16,
      "type": "VEC2",
      "max": [
        0.005661435,
        0.5271465
      ],
      "min": [
        5.6053814E-05,
        0.5215411
      ]
    },
    {
      "bufferView": 88,
      "componentType": 5126,
      "count": 34,
      "type": "VEC3",
      "max": [
        0.238,
        -0.0575,
        -0.0815
      ],
      "min": [
        0.229,
        -0.0625,
        -0.0865
      ]
    },
    {
      "bufferView": 89,
      "componentType": 5125,
      "count": 96,
      "type": "SCALAR",
      "max": [
        33.0
      ],
      "min": [
        0.0
      ]
    },
    {
      "bufferView": 90,
      "componentType": 5126,
      "count": 34,
      "type": "VEC3",
      "max": [
        0.0,
        1.0,
        1.0
      ],
      "min": [
        0.0,
        -1.0,
        -1.0
      ]
    },
    {
      "bufferView": 91,
      "componentType": 5126,
      "count": 34,
      "type": "VEC2",
      "max": [
        0.058511958,
        0.63895905
      ],
      "min": [
        0.04101561,
        0.6288694
      ]
    },
    {
      "bufferView": 92,
      "componentType": 5126,
      "count": 16,
      "type": "VEC3",
      "max": [
        0.229,
        -0.0575,
        -0.0815
      ],
      "min": [
        0.229,
        -0.0625,
        -0.0865
      ]
    },
    {
      "bufferView": 93,
      "componentType": 5125,
      "count": 42,
      "type": "SCALAR",
      "max": [
        15.0
      ],
      "min": [
        0.0
      ]
    },
    {
      "bufferView": 94,
      "componentType": 5126,
      "count": 16,
      "type": "VEC3",
      "max": [
        1.0,
        0.0,
        -9.8607613E-32
      ],
      "min": [
        1.0,
        0.0,
        -9.8607613E-32
      ]
    },
    {
      "bufferView": 95,
      "componentType": 5126,
      "count": 16,
      "type": "VEC2",
      "max": [
        0.005661435,
        0.47651345
      ],
      "min": [
        5.6053977E-05,
        0.47090808
      ]
    },
    {
      "bufferView": 96,
      "componentType": 5126,
      "count": 82,
      "type": "VEC3",
      "max": [
        0.238,
        -0.379,
        -0.08
      ],
      "min": [
        0.224,
        -0.387,
        -0.088
      ]
    },
    {
      "bufferView": 97,
      "componentType": 5125,
      "count": 240,
      "type": "SCALAR",
      "max": [
        81.0
      ],
      "min": [
        0.0
      ]
    },
    {
      "bufferView": 98,
      "componentType": 5126,
      "count": 82,
      "type": "VEC3",
      "max": [
        2.3079562E-15,
        1.0,
        1.0
      ],
      "min": [
        -1.6056479E-15,
        -1.0,
        -1.0
      ]
    },
    {
      "bufferView": 99,
      "componentType": 5126,
      "count": 82,
      "type": "VEC2",
      "max": [
        0.08867523,
        0.49884617
      ],
      "min": [
        0.07444501,
        0.47085202
      ]
    },
    {
      "bufferView": 100,
      "componentType": 5126,
      "count": 16,
      "type": "VEC3",
      "max": [
        0.224,
        -0.379,
        -0.08
      ],
      "min": [
        0.224,
        -0.387,
        -0.088
      ]
    },
    {
      "bufferView": 101,
      "componentType": 5125,
      "count": 42,
      "type": "SCALAR",
      "max": [
        15.0
      ],
      "min": [
        0.0
      ]
    },
    {
      "bufferView": 102,
      "componentType": 5126,
      "count": 16,
      "type": "VEC3",
      "max": [
        1.0,
        0.0,
        0.0
      ],
      "min": [
        1.0,
        0.0,
        0.0
      ]
    },
    {
      "bufferView": 103,
      "componentType": 5126,
      "count": 16,
      "type": "VEC2",
      "max": [
        0.02021876,
        0.51322156
      ],
      "min": [
        0.01125015,
        0.5042529
      ]
    },
    {
      "bufferView": 104,
      "componentType": 5126,
      "count": 82,
      "type": "VEC3",
      "max": [
        0.238,
        -0.088,
        -0.08
      ],
      "min": [
        0.224,
        -0.096,
        -0.088
      ]
    },
    {
      "bufferView": 105,
      "componentType": 5125,
      "count": 240,
      "type": "SCALAR",
      "max": [
        81.0
      ],
      "min": [
        0.0
      ]
    },
    {
      "bufferView": 106,
      "componentType": 5126,
      "count": 82,
      "type": "VEC3",
      "max": [
        6.2550784E-16,
        1.0,
        1.0
      ],
      "min": [
        -6.1429577E-16,
        -1.0,
        -1.0
      ]
    },
    {
      "bufferView": 107,
      "componentType": 5126,
      "count": 82,
      "type": "VEC2",
      "max": [
        0.027994158,
        0.58781326
      ],
      "min": [
        0.0,
        0.57211816
      ]
    },
    {
      "bufferView": 108,
      "componentType": 5126,
      "count": 16,
      "type": "VEC3",
      "max": [
        0.224,
        -0.088,
        -0.08
      ],
      "min": [
        0.224,
        -0.096,
        -0.088
      ]
    },
    {
      "bufferView": 109,
      "componentType": 5125,
      "count": 42,
      "type": "SCALAR",
      "max": [
        15.0
      ],
      "min": [
        0.0
      ]
    },
    {
      "bufferView": 110,
      "componentType": 5126,
      "count": 16,
      "type": "VEC3",
      "max": [
        1.0,
        0.0,
        0.0
      ],
      "min": [
        1.0,
        0.0,
        0.0
      ]
    },
    {
      "bufferView": 111,
      "componentType": 5126,
      "count": 16,
      "type": "VEC2",
      "max": [
        0.039465517,
        0.5836745
      ],
      "min": [
        0.03094065,
        0.5747059
      ]
    },
    {
      "bufferView": 112,
      "componentType": 5126,
      "count": 4,
      "type": "VEC3",
      "max": [
        0.238,
        -0.006,
        -0.075
      ],
      "min": [
        0.229,
        -0.01,
        -0.075
      ]
    },
    {
      "bufferView": 113,
      "componentType": 5125,
      "count": 6,
      "type": "SCALAR",
      "max": [
        3.0
      ],
      "min": [
        0.0
      ]
    },
    {
      "bufferView": 114,
      "componentType": 5126,
      "count": 4,
      "type": "VEC3",
      "max": [
        0.0,
        0.0,
        -1.0
      ],
      "min": [
        0.0,
        0.0,
        -1.0
      ]
    },
    {
      "bufferView": 115,
      "componentType": 5126,
      "count": 4,
      "type": "VEC2",
      "max": [
        0.021250151,
        0.4753363
      ],
      "min": [
        0.011160464,
        0.47085202
      ]
    },
    {
      "bufferView": 116,
      "componentType": 5126,
      "count": 4,
      "type": "VEC3",
      "max": [
        0.229,
        -0.006,
        -0.075
      ],
      "min": [
        0.229,
        -0.01,
        -0.472
      ]
    },
    {
      "bufferView": 117,
      "componentType": 5125,
      "count": 6,
      "type": "SCALAR",
      "max": [
        3.0
      ],
      "min": [
        0.0
      ]
    },
    {
      "bufferView": 118,
      "componentType": 5126,
      "count": 4,
      "type": "VEC3",
      "max": [
        1.0,
        0.0,
        0.0
      ],
      "min": [
        1.0,
        0.0,
        0.0
      ]
    },
    {
      "bufferView": 119,
      "componentType": 5126,
      "count": 4,
      "type": "VEC2",
      "max": [
        0.094624385,
        0.9159193
      ],
      "min": [
        0.090140074,
        0.47085202
      ]
    },
    {
      "bufferView": 120,
      "componentType": 5126,
      "count": 4,
      "type": "VEC3",
      "max": [
        0.238,
        -0.006,
        -0.075
      ],
      "min": [
        0.229,
        -0.006,
        -0.472
      ]
    },
    {
      "bufferView": 121,
      "componentType": 5125,
      "count": 6,
      "type": "SCALAR",
      "max": [
        3.0
      ],
      "min": [
        0.0
      ]
    },
    {
      "bufferView": 122,
      "componentType": 5126,
      "count": 4,
      "type": "VEC3",
      "max": [
        0.0,
        -1.0,
        0.0
      ],
      "min": [
        0.0,
        -1.0,
        0.0
      ]
    },
    {
      "bufferView": 123,
      "componentType": 5126,
      "count": 4,
      "type": "VEC2",
      "max": [
        0.5942806,
        0.44506726
      ],
      "min": [
        0.58565575,
        0.0
      ]
    },
    {
      "bufferView": 124,
      "componentType": 5126,
      "count": 4,
      "type": "VEC3",
      "max": [
        0.238,
        -0.01,
        -0.075
      ],
      "min": [
        0.229,
        -0.01,
        -0.472
      ]
    },
    {
      "bufferView": 125,
      "componentType": 5125,
      "count": 6,
      "type": "SCALAR",
      "max": [
        3.0
      ],
      "min": [
        0.0
      ]
    },
    {
      "bufferView": 126,
      "componentType": 5126,
      "count": 4,
      "type": "VEC3",
      "max": [
        0.0,
        1.0,
        0.0
      ],
      "min": [
        0.0,
        1.0,
        0.0
      ]
    },
    {
      "bufferView": 127,
      "componentType": 5126,
      "count": 4,
      "type": "VEC2",
      "max": [
        0.62599725,
        0.5004168
      ],
      "min": [
        0.61592484,
        0.055349536
      ]
    }
  ],
  "asset": {
    "version": "2.0"
  },
  "buffers": [
    {
      "uri": "data:application/octet-stream;base64,",
      "byteLength": 48
    },
    {
      "uri": "data:application/octet-stream;base64,",
      "byteLength": 24
    },
    {
      "uri": "data:application/octet-stream;base64,",
      "byteLength": 48
    },
    {
      "uri": "data:application/octet-stream;base64,",
      "byteLength": 32
    },
    {
      "uri": "data:application/octet-stream;base64,",
      "byteLength": 48
    },
    {
      "uri": "data:application/octet-stream;base64,",
      "byteLength": 24
    },
    {
      "uri": "data:application/octet-stream;base64,",
      "byteLength": 48
    },
    {
      "uri": "data:application/octet-stream;base64,",
      "byteLength": 32
    },
    {
      "uri": "data:application/octet-stream;base64,",
      "byteLength": 2544
    },
    {
      "uri": "data:application/octet-stream;base64,",
      "byteLength": 2616
    },
    {
      "uri": "data:application/octet-stream;base64,",
      "byteLength": 2544
    },
    {
      "uri": "data:application/octet-stream;base64,",
      "byteLength": 1696
    },
    {
      "uri": "data:application/octet-stream;base64,",
      "byteLength": 48
    },
    {
      "uri": "data:application/octet-stream;base64,",
      "byteLength": 24
    },
    {
      "uri": "data:application/octet-stream;base64,",
      "byteLength": 48
    },
    {
      "uri": "data:application/octet-stream;base64,",
      "byteLength": 32
    },
    {
      "uri": "data:application/octet-stream;base64,",
      "byteLength": 2928
    },
    {
      "uri": "data:application/octet-stream;base64,",
      "byteLength": 3048
    },
    {
      "uri": "data:application/octet-stream;base64,",
      "byteLength": 2928
    },
    {
      "uri": "data:application/octet-stream;base64,",
      "byteLength": 1952
    },
    {
      "uri": "data:application/octet-stream;base64,",
      "byteLength": 48
    },
    {
      "uri": "data:application/octet-stream;base64,",
      "byteLength": 24
    },
    {
      "uri": "data:application/octet-stream;base64,",
      "byteLength": 48
    },
    {
      "uri": "data:application/octet-stream;base64,",
      "byteLength": 32
    },
    {
      "uri": "data:application/octet-stream;base64,",
      "byteLength": 1356
    },
    {
      "uri": "data:application/octet-stream;base64,",
      "byteLength": 1788
    },
    {
      "uri": "data:application/octet-stream;base64,",
      "byteLength": 1356
    },
    {
      "uri": "data:application/octet-stream;base64,",
      "byteLength": 904
    },
    {
      "uri": "data:application/octet-stream;base64,",
      "byteLength": 1356
    },
    {
      "uri": "data:application/octet-stream;base64,",
      "byteLength": 1788
    },
    {
      "uri": "data:application/octet-stream;base64,",
      "byteLength": 1356
    },
    {
      "uri": "data:application/octet-stream;base64,",
      "byteLength": 904
    },
    {
      "uri": "data:application/octet-stream;base64,",
      "byteLength": 456
    },
    {
      "uri": "data:application/octet-stream;base64,",
      "byteLength": 432
    },
    {
      "uri": "data:application/octet-stream;base64,",
      "byteLength": 456
    },
    {
      "uri": "data:application/octet-stream;base64,",
      "byteLength": 304
    },
    {
      "uri": "data:application/octet-stream;base64,",
      "byteLength": 1224
    },
    {
      "uri": "data:application/octet-stream;base64,",
      "byteLength": 1740
    },
    {
      "uri": "data:application/octet-stream;base64,",
      "byteLength": 1224
    },
    {
      "uri": "data:application/octet-stream;base64,",
      "byteLength": 816
    },
    {
      "uri": "data:application/octet-stream;base64,",
      "byteLength": 1224
    },
    {
      "uri": "data:application/octet-stream;base64,",
      "byteLength": 1740
    },
    {
      "uri": "data:application/octet-stream;base64,",
      "byteLength": 1224
    },
    {
      "uri": "data:application/octet-stream;base64,",
      "byteLength": 816
    },
    {
      "uri": "data:application/octet-stream;base64,",
      "byteLength": 1356
    },
    {
      "uri": "data:application/octet-stream;base64,",
      "byteLength": 1788
    },
    {
      "uri": "data:application/octet-stream;base64,",
      "byteLength": 1356
    },
    {
      "uri": "data:application/octet-stream;base64,",
      "byteLength": 904
    },
    {
      "uri": "data:application/octet-stream;base64,",
      "byteLength": 1356
    },
    {
      "uri": "data:application/octet-stream;base64,",
      "byteLength": 1788
    },
    {
      "uri": "data:application/octet-stream;base64,",
      "byteLength": 1356
    },
    {
      "uri": "data:application/octet-stream;base64,",
      "byteLength": 904
    },
    {
      "uri": "data:application/octet-stream;base64,",
      "byteLength": 456
    },
    {
      "uri": "data:application/octet-stream;base64,",
      "byteLength": 432
    },
    {
      "uri": "data:application/octet-stream;base64,",
      "byteLength": 456
    },
    {
      "uri": "data:application/octet-stream;base64,",
      "byteLength": 304
    },
    {
      "uri": "data:application/octet-stream;base64,",
      "byteLength": 1224
    },
    {
      "uri": "data:application/octet-stream;base64,",
      "byteLength": 1740
    },
    {
      "uri": "data:application/octet-stream;base64,",
      "byteLength": 1224
    },
    {
      "uri": "data:application/octet-stream;base64,",
      "byteLength": 816
    },
    {
      "uri": "data:application/octet-stream;base64,",
      "byteLength": 1224
    },
    {
      "uri": "data:application/octet-stream;base64,",
      "byteLength": 1740
    },
    {
      "uri": "data:application/octet-stream;base64,",
      "byteLength": 1224
    },
    {
      "uri": "data:application/octet-stream;base64,",
      "byteLength": 816
    },
    {
      "uri": "data:application/octet-stream;base64,",
      "byteLength": 984
    },
    {
      "uri": "data:application/octet-stream;base64,",
      "byteLength": 960
    },
    {
      "uri": "data:application/octet-stream;base64,",
      "byteLength": 984
    },
    {
      "uri": "data:application/octet-stream;base64,",
      "byteLength": 656
    },
    {
      "uri": "data:application/octet-stream;base64,",
      "byteLength": 192
    },
    {
      "uri": "data:application/octet-stream;base64,",
      "byteLength": 168
    },
    {
      "uri": "data:application/octet-stream;base64,",
      "byteLength": 192
    },
    {
      "uri": "data:application/octet-stream;base64,",
      "byteLength": 128
    },
    {
      "uri": "data:application/octet-stream;base64,",
      "byteLength": 984
    },
    {
      "uri": "data:application/octet-stream;base64,",
      "byteLength": 960
    },
    {
      "uri": "data:application/octet-stream;base64,",
      "byteLength": 984
    },
    {
      "uri": "data:application/octet-stream;base64,",
      "byteLength": 656
    },
    {
      "uri": "data:application/octet-stream;base64,",
      "byteLength": 192
    },
    {
      "uri": "data:application/octet-stream;base64,",
      "byteLength": 168
    },
    {
      "uri": "data:application/octet-stream;base64,",
      "byteLength": 192
    },
    {
      "uri": "data:application/octet-stream;base64,",
      "byteLength": 128
    },
    {
      "uri": "data:application/octet-stream;base64,",
      "byteLength": 408
    },
    {
      "uri": "data:application/octet-stream;base64,",
      "byteLength": 384
    },
    {
      "uri": "data:application/octet-stream;base64,",
      "byteLength": 408
    },
    {
      "uri": "data:application/octet-stream;base64,",
      "byteLength": 272
    },
    {
      "uri": "data:application/octet-stream;base64,",
      "byteLength": 192
    },
    {
      "uri": "data:application/octet-stream;base64,",
      "byteLength": 168
    },
    {
      "uri": "data:application/octet-stream;base64,",
      "byteLength": 192
    },
    {
      "uri": "data:application/octet-stream;base64,",
      "byteLength": 128
    },
    {
      "uri": "data:application/octet-stream;base64,",
      "byteLength": 408
    },
    {
      "uri": "data:application/octet-stream;base64,",
      "byteLength": 384
    },
    {
      "uri": "data:application/octet-stream;base64,",
      "byteLength": 408
    },
    {
      "uri": "data:application/octet-stream;base64,",
      "byteLength": 272
    },
    {
      "uri": "data:application/octet-stream;base64,",
      "byteLength": 192
    },
    {
      "uri": "data:application/octet-stream;base64,",
      "byteLength": 168
    },
    {
      "uri": "data:application/octet-stream;base64,",
      "byteLength": 192
    },
    {
      "uri": "data:application/octet-stream;base64,",
      "byteLength": 128
    },
    {
      "uri": "data:application/octet-stream;base64,",
      "byteLength": 984
    },
    {
      "uri": "data:application/octet-stream;base64,",
      "byteLength": 960
    },
    {
      "uri": "data:application/octet-stream;base64,",
      "byteLength": 984
    },
    {
      "uri": "data:application/octet-stream;base64,",
      "byteLength": 656
    },
    {
      "uri": "data:application/octet-stream;base64,",
      "byteLength": 192
    },
    {
      "uri": "data:application/octet-stream;base64,",
      "byteLength": 168
    },
    {
      "uri": "data:application/octet-stream;base64,",
      "byteLength": 192
    },
    {
      "uri": "data:application/octet-stream;base64,",
      "byteLength": 128
    },
    {
      "uri": "data:application/octet-stream;base64,",
      "byteLength": 984
    },
    {
      "uri": "data:application/octet-stream;base64,",
      "byteLength": 960
    },
    {
      "uri": "data:application/octet-stream;base64,",
      "byteLength": 984
    },
    {
      "uri": "data:application/octet-stream;base64,",
      "byteLength": 656
    },
    {
      "uri": "data:application/octet-stream;base64,",
      "byteLength": 192
    },
    {
      "uri": "data:application/octet-stream;base64,",
      "byteLength": 168
    },
    {
      "uri": "data:application/octet-stream;base64,",
      "byteLength": 192
    },
    {
      "uri": "data:application/octet-stream;base64,",
      "byteLength": 128
    },
    {
      "uri": "data:application/octet-stream;base64,",
      "byteLength": 48
    },
    {
      "uri": "data:application/octet-stream;base64,",
      "byteLength": 24
    },
    {
      "uri": "data:application/octet-stream;base64,",
      "byteLength": 48
    },
    {
      "uri": "data:application/octet-stream;base64,",
      "byteLength": 32
    },
    {
      "uri": "data:application/octet-stream;base64,",
      "byteLength": 48
    },
    {
      "uri": "data:application/octet-stream;base64,",
      "byteLength": 24
    },
    {
      "uri": "data:application/octet-stream;base64,",
      "byteLength": 48
    },
    {
      "uri": "data:application/octet-stream;base64,",
      "byteLength": 32
    },
    {
      "uri": "data:application/octet-stream;base64,",
      "byteLength": 48
    },
    {
      "uri": "data:application/octet-stream;base64,",
      "byteLength": 24
    },
    {
      "uri": "data:application/octet-stream;base64,",
      "byteLength": 48
    },
    {
      "uri": "data:application/octet-stream;base64,",
      "byteLength": 32
    },
    {
      "uri": "data:application/octet-stream;base64,",
      "byteLength": 48
    },
    {
      "uri": "data:application/octet-stream;base64,",
      "byteLength": 24
    },
    {
      "uri": "data:application/octet-stream;base64,",
      "byteLength": 48
    },
    {
      "uri": "data:application/octet-stream;base64,",
      "byteLength": 32
    }
  ],
  "bufferViews": [
    {
      "buffer": 0,
      "byteLength": 48,
      "target": 34962
    },
    {
      "buffer": 1,
      "byteLength": 24,
      "target": 34963
    },
    {
      "buffer": 2,
      "byteLength": 48,
      "target": 34962
    },
    {
      "buffer": 3,
      "byteLength": 32,
      "target": 34962
    },
    {
      "buffer": 4,
      "byteLength": 48,
      "target": 34962
    },
    {
      "buffer": 5,
      "byteLength": 24,
      "target": 34963
    },
    {
      "buffer": 6,
      "byteLength": 48,
      "target": 34962
    },
    {
      "buffer": 7,
      "byteLength": 32,
      "target": 34962
    },
    {
      "buffer": 8,
      "byteLength": 2544,
      "target": 34962
    },
    {
      "buffer": 9,
      "byteLength": 2616,
      "target": 34963
    },
    {
      "buffer": 10,
      "byteLength": 2544,
      "target": 34962
    },
    {
      "buffer": 11,
      "byteLength": 1696,
      "target": 34962
    },
    {
      "buffer": 12,
      "byteLength": 48,
      "target": 34962
    },
    {
      "buffer": 13,
      "byteLength": 24,
      "target": 34963
    },
    {
      "buffer": 14,
      "byteLength": 48,
      "target": 34962
    },
    {
      "buffer": 15,
      "byteLength": 32,
      "target": 34962
    },
    {
      "buffer": 16,
      "byteLength": 2928,
      "target": 34962
    },
    {
      "buffer": 17,
      "byteLength": 3048,
      "target": 34963
    },
    {
      "buffer": 18,
      "byteLength": 2928,
      "target": 34962
    },
    {
      "buffer": 19,
      "byteLength": 1952,
      "target": 34962
    },
    {
      "buffer": 20,
      "byteLength": 48,
      "target": 34962
    },
    {
      "buffer": 21,
      "byteLength": 24,
      "target": 34963
    },
    {
      "buffer": 22,
      "byteLength": 48,
      "target": 34962
    },
    {
      "buffer": 23,
      "byteLength": 32,
      "target": 34962
    },
    {
      "buffer": 24,
      "byteLength": 1356,
      "target": 34962
    },
    {
      "buffer": 25,
      "byteLength": 1788,
      "target": 34963
    },
    {
      "buffer": 26,
      "byteLength": 1356,
      "target": 34962
    },
    {
      "buffer": 27,
      "byteLength": 904,
      "target": 34962
    },
    {
      "buffer": 28,
      "byteLength": 1356,
      "target": 34962
    },
    {
      "buffer": 29,
      "byteLength": 1788,
      "target": 34963
    },
    {
      "buffer": 30,
      "byteLength": 1356,
      "target": 34962
    },
    {
      "buffer": 31,
      "byteLength": 904,
      "target": 34962
    },
    {
      "buffer": 32,
      "byteLength": 456,
      "target": 34962
    },
    {
      "buffer": 33,
      "byteLength": 432,
      "target": 34963
    },
    {
      "buffer": 34,
      "byteLength": 456,
      "target": 34962
    },
    {
      "buffer": 35,
      "byteLength": 304,
      "target": 34962
    },
    {
      "buffer": 36,
      "byteLength": 1224,
      "target": 34962
    },
    {
      "buffer": 37,
      "byteLength": 1740,
      "target": 34963
    },
    {
      "buffer": 38,
      "byteLength": 1224,
      "target": 34962
    },
    {
      "buffer": 39,
      "byteLength": 816,
      "target": 34962
    },
    {
      "buffer": 40,
      "byteLength": 1224,
      "target": 34962
    },
    {
      "buffer": 41,
      "byteLength": 1740,
      "target": 34963
    },
    {
      "buffer": 42,
      "byteLength": 1224,
      "target": 34962
    },
    {
      "buffer": 43,
      "byteLength": 816,
      "target": 34962
    },
    {
      "buffer": 44,
      "byteLength": 1356,
      "target": 34962
    },
    {
      "buffer": 45,
      "byteLength": 1788,
      "target": 34963
    },
    {
      "buffer": 46,
      "byteLength": 1356,
      "target": 34962
    },
    {
      "buffer": 47,
      "byteLength": 904,
      "target": 34962
    },
    {
      "buffer": 48,
      "byteLength": 1356,
      "target": 34962
    },
    {
      "buffer": 49,
      "byteLength": 1788,
      "target": 34963
    },
    {
      "buffer": 50,
      "byteLength": 1356,
      "target": 34962
    },
    {
      "buffer": 51,
      "byteLength": 904,
      "target": 34962
    },
    {
      "buffer": 52,
      "byteLength": 456,
      "target": 34962
    },
    {
      "buffer": 53,
      "byteLength": 432,
      "target": 34963
    },
    {
      "buffer": 54,
      "byteLength": 456,
      "target": 34962
    },
    {
      "buffer": 55,
      "byteLength": 304,
      "target": 34962
    },
    {
      "buffer": 56,
      "byteLength": 1224,
      "target": 34962
    },
    {
      "buffer": 57,
      "byteLength": 1740,
      "target": 34963
    },
    {
      "buffer": 58,
      "byteLength": 1224,
      "target": 34962
    },
    {
      "buffer": 59,
      "byteLength": 816,
      "target": 34962
    },
    {
      "buffer": 60,
      "byteLength": 1224,
      "target": 34962
    },
    {
      "buffer": 61,
      "byteLength": 1740,
      "target": 34963
    },
    {
      "buffer": 62,
      "byteLength": 1224,
      "target": 34962
    },
    {
      "buffer": 63,
      "byteLength": 816,
      "target": 34962
    },
    {
      "buffer": 64,
      "byteLength": 984,
      "target": 34962
    },
    {
      "buffer": 65,
      "byteLength": 960,
      "target": 34963
    },
    {
      "buffer": 66,
      "byteLength": 984,
      "target": 34962
    },
    {
      "buffer": 67,
      "byteLength": 656,
      "target": 34962
    },
    {
      "buffer": 68,
      "byteLength": 192,
      "target": 34962
    },
    {
      "buffer": 69,
      "byteLength": 168,
      "target": 34963
    },
    {
      "buffer": 70,
      "byteLength": 192,
      "target": 34962
    },
    {
      "buffer": 71,
      "byteLength": 128,
      "target": 34962
    },
    {
      "buffer": 72,
      "byteLength": 984,
      "target": 34962
    },
    {
      "buffer": 73,
      "byteLength": 960,
      "target": 34963
    },
    {
      "buffer": 74,
      "byteLength": 984,
      "target": 34962
    },
    {
      "buffer": 75,
      "byteLength": 656,
      "target": 34962
    },
    {
      "buffer": 76,
      "byteLength": 192,
      "target": 34962
    },
    {
      "buffer": 77,
      "byteLength": 168,
      "target": 34963
    },
    {
      "buffer": 78,
      "byteLength": 192,
      "target": 34962
    },
    {
      "buffer": 79,
      "byteLength": 128,
      "target": 34962
    },
    {
      "buffer": 80,
      "byteLength": 408,
      "target": 34962
    },
    {
      "buffer": 81,
      "byteLength": 384,
      "target": 34963
    },
    {
      "buffer": 82,
      "byteLength": 408,
      "target": 34962
    },
    {
      "buffer": 83,
      "byteLength": 272,
      "target": 34962
    },
    {
      "buffer": 84,
      "byteLength": 192,
      "target": 34962
    },
    {
      "buffer": 85,
      "byteLength": 168,
      "target": 34963
    },
    {
      "buffer": 86,
      "byteLength": 192,
      "target": 34962
    },
    {
      "buffer": 87,
      "byteLength": 128,
      "target": 34962
    },
    {
      "buffer": 88,
      "byteLength": 408,
      "target": 34962
    },
    {
      "buffer": 89,
      "byteLength": 384,
      "target": 34963
    },
    {
      "buffer": 90,
      "byteLength": 408,
      "target": 34962
    },
    {
      "buffer": 91,
      "byteLength": 272,
      "target": 34962
    },
    {
      "buffer": 92,
      "byteLength": 192,
      "target": 34962
    },
    {
      "buffer": 93,
      "byteLength": 168,
      "target": 34963
    },
    {
      "buffer": 94,
      "byteLength": 192,
      "target": 34962
    },
    {
      "buffer": 95,
      "byteLength": 128,
      "target": 34962
    },
    {
      "buffer": 96,
      "byteLength": 984,
      "target": 34962
    },
    {
      "buffer": 97,
      "byteLength": 960,
      "target": 34963
    },
    {
      "buffer": 98,
      "byteLength": 984,
      "target": 34962
    },
    {
      "buffer": 99,
      "byteLength": 656,
      "target": 34962
    },
    {
      "buffer": 100,
      "byteLength": 192,
      "target": 34962
    },
    {
      "buffer": 101,
      "byteLength": 168,
      "target": 34963
    },
    {
      "buffer": 102,
      "byteLength": 192,
      "target": 34962
    },
    {
      "buffer": 103,
      "byteLength": 128,
      "target": 34962
    },
    {
      "buffer": 104,
      "byteLength": 984,
      "target": 34962
    },
    {
      "buffer": 105,
      "byteLength": 960,
      "target": 34963
    },
    {
      "buffer": 106,
      "byteLength": 984,
      "target": 34962
    },
    {
      "buffer": 107,
      "byteLength": 656,
      "target": 34962
    },
    {
      "buffer": 108,
      "byteLength": 192,
      "target": 34962
    },
    {
      "buffer": 109,
      "byteLength": 168,
      "target": 34963
    },
    {
      "buffer": 110,
      "byteLength": 192,
      "target": 34962
    },
    {
      "buffer": 111,
      "byteLength": 128,
      "target": 34962
    },
    {
      "buffer": 112,
      "byteLength": 48,
      "target": 34962
    },
    {
      "buffer": 113,
      "byteLength": 24,
      "target": 34963
    },
    {
      "buffer": 114,
      "byteLength": 48,
      "target": 34962
    },
    {
      "buffer": 115,
      "byteLength": 32,
      "target": 34962
    },
    {
      "buffer": 116,
      "byteLength": 48,
      "target": 34962
    },
    {
      "buffer": 117,
      "byteLength": 24,
      "target": 34963
    },
    {
      "buffer": 118,
      "byteLength": 48,
      "target": 34962
    },
    {
      "buffer": 119,
      "byteLength": 32,
      "target": 34962
    },
    {
      "buffer": 120,
      "byteLength": 48,
      "target": 34962
    },
    {
      "buffer": 121,
      "byteLength": 24,
      "target": 34963
    },
    {
      "buffer": 122,
      "byteLength": 48,
      "target": 34962
    },
    {
      "buffer": 123,
      "byteLength": 32,
      "target": 34962
    },
    {
      "buffer": 124,
      "byteLength": 48,
      "target": 34962
    },
    {
      "buffer": 125,
      "byteLength": 24,
      "target": 34963
    },
    {
      "buffer": 126,
      "byteLength": 48,
      "target": 34962
    },
    {
      "buffer": 127,
      "byteLength": 32,
      "target": 34962
    }
  ],
  "meshes": [
    {
      "primitives": [
        {
          "attributes": {
            "POSITION": 0,
            "NORMAL": 2,
            "TEXCOORD_0": 3
          },
          "indices": 1
        },
        {
          "attributes": {
            "POSITION": 4,
            "NORMAL": 6,
            "TEXCOORD_0": 7
          },
          "indices": 5
        },
        {
          "attributes": {
            "POSITION": 8,
            "NORMAL": 10,
            "TEXCOORD_0": 11
          },
          "indices": 9
        },
        {
          "attributes": {
            "POSITION": 12,
            "NORMAL": 14,
            "TEXCOORD_0": 15
          },
          "indices": 13
        },
        {
          "attributes": {
            "POSITION": 16,
            "NORMAL": 18,
            "TEXCOORD_0": 19
          },
          "indices": 17
        },
        {
          "attributes": {
            "POSITION": 20,
            "NORMAL": 22,
            "TEXCOORD_0": 23
          },
          "indices": 21
        },
        {
          "attributes": {
            "POSITION": 24,
            "NORMAL": 26,
            "TEXCOORD_0": 27
          },
          "indices": 25
        },
        {
          "attributes": {
            "POSITION": 28,
            "NORMAL": 30,
            "TEXCOORD_0": 31
          },
          "indices": 29
        },
        {
          "attributes": {
            "POSITION": 32,
            "NORMAL": 34,
            "TEXCOORD_0": 35
          },
          "indices": 33
        },
        {
          "attributes": {
            "POSITION": 36,
            "NORMAL": 38,
            "TEXCOORD_0": 39
          },
          "indices": 37
        },
        {
          "attributes": {
            "POSITION": 40,
            "NORMAL": 42,
            "TEXCOORD_0": 43
          },
          "indices": 41
        },
        {
          "attributes": {
            "POSITION": 44,
            "NORMAL": 46,
            "TEXCOORD_0": 47
          },
          "indices": 45
        },
        {
          "attributes": {
            "POSITION": 48,
            "NORMAL": 50,
            "TEXCOORD_0": 51
          },
          "indices": 49
        },
        {
          "attributes": {
            "POSITION": 52,
            "NORMAL": 54,
            "TEXCOORD_0": 55
          },
          "indices": 53
        },
        {
          "attributes": {
            "POSITION": 56,
            "NORMAL": 58,
            "TEXCOORD_0": 59
          },
          "indices": 57
        },
        {
          "attributes": {
            "POSITION": 60,
            "NORMAL": 62,
            "TEXCOORD_0": 63
          },
          "indices": 61
        },
        {
          "attributes": {
            "POSITION": 64,
            "NORMAL": 66,
            "TEXCOORD_0": 67
          },
          "indices": 65
        },
        {
          "attributes": {
            "POSITION": 68,
            "NORMAL": 70,
            "TEXCOORD_0": 71
          },
          "indices": 69
        },
        {
          "attributes": {
            "POSITION": 72,
            "NORMAL": 74,
            "TEXCOORD_0": 75
          },
          "indices": 73
        },
        {
          "attributes": {
            "POSITION": 76,
            "NORMAL": 78,
            "TEXCOORD_0": 79
          },
          "indices": 77
        },
        {
          "attributes": {
            "POSITION": 80,
            "NORMAL": 82,
            "TEXCOORD_0": 83
          },
          "indices": 81
        },
        {
          "attributes": {
            "POSITION": 84,
            "NORMAL": 86,
            "TEXCOORD_0": 87
          },
          "indices": 85
        },
        {
          "attributes": {
            "POSITION": 88,
            "NORMAL": 90,
            "TEXCOORD_0": 91
          },
          "indices": 89
        },
        {
          "attributes": {
            "POSITION": 92,
            "NORMAL": 94,
            "TEXCOORD_0": 95
          },
          "indices": 93
        },
        {
          "attributes": {
            "POSITION": 96,
            "NORMAL": 98,
            "TEXCOORD_0": 99
          },
          "indices": 97
        },
        {
          "attributes": {
            "POSITION": 100,
            "NORMAL": 102,
            "TEXCOORD_0": 103
          },
          "indices": 101
        },
        {
          "attributes": {
            "POSITION": 104,
            "NORMAL": 106,
            "TEXCOORD_0": 107
          },
          "indices": 105
        },
        {
          "attributes": {
            "POSITION": 108,
            "NORMAL": 110,
            "TEXCOORD_0": 111
          },
          "indices": 109
        },
        {
          "attributes": {
            "POSITION": 112,
            "NORMAL": 114,
            "TEXCOORD_0": 115
          },
          "indices": 113
        },
        {
          "attributes": {
            "POSITION": 116,
            "NORMAL": 118,
            "TEXCOORD_0": 119
          },
          "indices": 117
        },
        {
          "attributes": {
            "POSITION": 120,
            "NORMAL": 122,
            "TEXCOORD_0": 123
          },
          "indices": 121
        },
        {
          "attributes": {
            "POSITION": 124,
            "NORMAL": 126,
            "TEXCOORD_0": 127
          },
          "indices": 125
        }
      ]
    }
  ],
  "nodes": [
    {
      "mesh": 0
    }
  ],
  "samplers": [
    {
      "magFilter": 9729,
      "minFilter": 9729
    }
  ],
  "scene": 0,
  "scenes": [
    {
      "nodes": [
        0
      ],
      "extensions": {}
    }
  ],
  "extensions": {}
}